<svg xmlns="http://www.w3.org/2000/svg" viewBox="0 0 13.41 15.41"><defs><style>.cls-1{fill:none;}.cls-2{fill:#231f20;}</style></defs><title>Asset 2</title><g id="Layer_2" data-name="Layer 2"><g id="Layer_2-2" data-name="Layer 2"><path class="cls-1" d="M8.63,2.84a4.13,4.13,0,0,0-7.35,2,4.15,4.15,0,0,0,3.59,4.6A4.12,4.12,0,0,0,8.63,2.84Z" transform="translate(0 0)"/><path class="cls-2" d="M8.59,8.48l.55.7a5.36,5.36,0,0,0-7.07-8A5.31,5.31,0,0,0,0,4.72a5.37,5.37,0,0,0,1.1,4,5.29,5.29,0,0,0,3.58,2,5,5,0,0,0,.67,0A5.25,5.25,0,0,0,8.16,10l-.55-.7Zm-3.72,1a4.15,4.15,0,0,1-3.59-4.6,4.13,4.13,0,1,1,3.59,4.6Z" transform="translate(0 0)"/><path class="cls-2" d="M13.41,14.64,9.14,9.18c-.15.14-.29.3-.46.43a3.58,3.58,0,0,1-.52.34l4.26,5.46Z" transform="translate(0 0)"/><path class="cls-2" d="M9.14,9.18l-.55-.7-1,.77.55.7a3.58,3.58,0,0,0,.52-.34C8.85,9.48,9,9.32,9.14,9.18Z" transform="translate(0 0)"/><path class="cls-2" d="M9.14,9.18l-.55-.7-1,.77.55.7a3.58,3.58,0,0,0,.52-.34C8.85,9.48,9,9.32,9.14,9.18Z" transform="translate(0 0)"/></g></g></svg>