<svg xmlns="http://www.w3.org/2000/svg" viewBox="0 0 13.41 15.41"><defs><style>.cls-1{fill:#231f20;}</style></defs><title>Asset 1</title><g id="Layer_2" data-name="Layer 2"><g id="Layer_2-2" data-name="Layer 2"><path class="cls-1" d="M5.39,10.75a5,5,0,0,1-.67,0,5.29,5.29,0,0,1-3.58-2,5.37,5.37,0,0,1-1.1-4,5.31,5.31,0,0,1,2-3.58A5.37,5.37,0,0,1,8.68,9.61h0A5.28,5.28,0,0,1,5.39,10.75Zm0-9.5A4.13,4.13,0,1,0,7.92,8.63h0A4.13,4.13,0,0,0,5.37,1.25Z" transform="translate(0 0)"/><rect class="cls-1" x="9.88" y="8.03" width="1.25" height="7.82" transform="translate(-5.13 9) rotate(-38)"/></g></g></svg>