<svg xmlns="http://www.w3.org/2000/svg" xmlns:xlink="http://www.w3.org/1999/xlink" viewBox="0 0 59.13 51.99"><defs><style>.cls-1{fill:none;}.cls-2{clip-path:url(#clip-path);}.cls-3{fill:#231f20;}</style><clipPath id="clip-path"><rect class="cls-1" width="59.13" height="51.99"/></clipPath></defs><title>quotes</title><g id="Layer_2" data-name="Layer 2"><g id="Layer_2-2" data-name="Layer 2"><g class="cls-2"><path class="cls-3" d="M37.93,52c6.25,0,10-4,10-9.82a9.8,9.8,0,0,0-9.82-10c-3.79,0-5.58,2.23-5.8,0-.67-10,18.3-25,26.78-29.9L57.56,0C36.14,13.61,27.44,26.1,27.44,39.27,27.44,47.52,31.68,52,37.93,52M10.49,52c6.24,0,10-4,10-9.82a9.81,9.81,0,0,0-9.82-10c-3.79,0-5.58,2.23-5.8,0-.67-10,18.3-25,26.77-29.9L30.12,0C8.7,13.61,0,26.1,0,39.27,0,47.52,4.24,52,10.49,52"/></g></g></g></svg>