<svg id="Layer_1" data-name="Layer 1" xmlns="http://www.w3.org/2000/svg" xmlns:xlink="http://www.w3.org/1999/xlink" viewBox="0 0 13.41 15.41"><defs><style>.cls-1{fill:none;}.cls-2{clip-path:url(#clip-path);}.cls-3{fill:#231f20;}</style><clipPath id="clip-path" transform="translate(-2 -0.59)"><rect class="cls-1" x="2" y="0.59" width="13.41" height="15.41"/></clipPath></defs><title>mag</title><g class="cls-2"><path class="cls-3" d="M7.39,11.34c-.22,0-.45,0-.67,0A5.38,5.38,0,0,1,2,5.31a5.31,5.31,0,0,1,2-3.58,5.37,5.37,0,1,1,6.61,8.47h0A5.34,5.34,0,0,1,7.39,11.34Zm0-9.5a4.07,4.07,0,0,0-2.53.87A4.11,4.11,0,0,0,4.13,8.5a4.11,4.11,0,0,0,5.79.71h0A4.12,4.12,0,0,0,7.37,1.84Z" transform="translate(-2 -0.59)"/><rect class="cls-3" x="11.88" y="8.62" width="1.25" height="7.82" transform="translate(-7.06 9.77) rotate(-38)"/></g></svg>